<svg width="130" height="198" viewBox="0 0 130 198" fill="none" xmlns="http://www.w3.org/2000/svg">
<path d="M129.149 165.95C129.149 174.24 122.132 181.892 110.446 187.501C98.7963 193.093 82.6673 196.566 64.8245 196.566C46.9818 196.566 30.8527 193.093 19.203 187.501C7.51731 181.892 0.5 174.24 0.5 165.95C0.5 157.66 7.51731 150.007 19.203 144.398C30.8527 138.806 46.9818 135.334 64.8245 135.334C82.6673 135.334 98.7963 138.806 110.446 144.398C122.132 150.007 129.149 157.66 129.149 165.95Z" fill="white" stroke="#D9D9D9"/>
<mask id="path-2-inside-1_84_195" fill="white">
<path d="M0 29.8184H129.649V163.357H0V29.8184Z"/>
</mask>
<path d="M0 29.8184H129.649V163.357H0V29.8184Z" fill="white"/>
<path d="M128.649 29.8184V163.357H130.649V29.8184H128.649ZM1 163.357V29.8184H-1V163.357H1Z" fill="#D9D9D9" mask="url(#path-2-inside-1_84_195)"/>
<ellipse cx="64.8245" cy="31.1158" rx="64.8245" ry="31.1158" fill="#272B31"/>
<path d="M37.3652 116.385C36.9172 117.757 36.0072 118.527 34.7192 118.527C32.9132 118.527 31.5692 117.225 31.5692 114.691C31.5692 112.157 32.9132 110.855 34.7192 110.855C36.0072 110.855 36.9172 111.625 37.3652 112.997L38.5552 112.647C38.1212 110.925 36.7632 109.679 34.7192 109.679C32.4372 109.679 30.2952 111.345 30.2952 114.691C30.2952 118.037 32.4372 119.703 34.7192 119.703C36.7632 119.703 38.1212 118.457 38.5552 116.735L37.3652 116.385ZM39.8105 116.063C39.8105 117.981 41.0845 119.703 43.1985 119.703C45.3125 119.703 46.5865 117.981 46.5865 116.063C46.5865 114.145 45.3125 112.423 43.1985 112.423C41.0845 112.423 39.8105 114.145 39.8105 116.063ZM41.0145 116.063C41.0145 114.761 41.7565 113.487 43.1985 113.487C44.6405 113.487 45.3825 114.761 45.3825 116.063C45.3825 117.365 44.6405 118.639 43.1985 118.639C41.7565 118.639 41.0145 117.365 41.0145 116.063ZM58.0253 114.621C58.0253 113.263 57.3253 112.423 56.0373 112.423C55.0433 112.423 54.2313 112.969 53.7413 113.893C53.5173 112.969 52.8313 112.423 51.8513 112.423C50.8713 112.423 50.1013 112.955 49.6533 113.837V112.535H48.4773V119.591H49.6533V116.693C49.6533 114.635 50.5073 113.487 51.5293 113.487C52.2713 113.487 52.6633 113.963 52.6633 114.873V119.591H53.8393V116.693C53.8393 114.635 54.6933 113.487 55.7153 113.487C56.4573 113.487 56.8493 113.963 56.8493 114.873V119.591H58.0253V114.621ZM70.0975 114.621C70.0975 113.263 69.3975 112.423 68.1095 112.423C67.1155 112.423 66.3035 112.969 65.8135 113.893C65.5895 112.969 64.9035 112.423 63.9235 112.423C62.9435 112.423 62.1735 112.955 61.7255 113.837V112.535H60.5495V119.591H61.7255V116.693C61.7255 114.635 62.5795 113.487 63.6015 113.487C64.3435 113.487 64.7355 113.963 64.7355 114.873V119.591H65.9115V116.693C65.9115 114.635 66.7655 113.487 67.7875 113.487C68.5295 113.487 68.9215 113.963 68.9215 114.873V119.591H70.0975V114.621ZM78.3234 115.769C78.3234 114.019 77.2174 112.423 75.1314 112.423C72.9894 112.423 71.9394 114.173 71.9394 116.063C71.9394 117.953 72.9894 119.703 75.1314 119.703C76.5874 119.703 77.4694 119.115 78.1274 117.743L77.0914 117.295C76.6994 118.163 76.1674 118.639 75.1314 118.639C73.8574 118.639 73.2134 117.617 73.1434 116.315H78.3234V115.769ZM75.1314 113.487C76.2654 113.487 76.8814 114.243 77.0914 115.251H73.2134C73.4234 114.229 74.0394 113.487 75.1314 113.487ZM85.9187 114.621C85.9187 113.221 85.1347 112.423 83.8467 112.423C82.8667 112.423 82.0267 112.927 81.5087 113.837V112.535H80.3327V119.591H81.5087V116.637C81.5087 114.677 82.4747 113.487 83.5247 113.487C84.3087 113.487 84.7427 113.963 84.7427 114.929V119.591H85.9187V114.621ZM87.4338 113.599H88.6518V117.379C88.6518 118.975 89.5058 119.703 90.6958 119.703C91.1018 119.703 91.5078 119.633 91.8438 119.437L91.5638 118.415C91.3118 118.583 91.0738 118.639 90.7658 118.639C90.1778 118.639 89.8278 118.233 89.8278 117.477V113.599H91.6758V112.535H89.8278V109.679L88.6518 110.421V112.535H87.4338V113.599ZM95.6378 112.423C94.3638 112.423 93.5658 113.277 93.5658 114.369C93.5658 116.665 96.8138 116.217 96.8138 117.533C96.8138 118.275 96.3938 118.639 95.6798 118.639C94.8958 118.639 94.3498 118.009 94.0418 117.253L93.0478 117.799C93.4118 118.751 94.2378 119.703 95.6798 119.703C97.1078 119.703 98.0178 118.877 98.0178 117.463C98.0178 115.391 94.7418 115.657 94.7418 114.383C94.7418 113.809 95.1198 113.487 95.5958 113.487C96.0858 113.487 96.4218 113.683 96.8838 114.187L97.6818 113.501C97.1918 112.801 96.5058 112.423 95.6378 112.423Z" fill="black"/>
</svg>
