<svg width="94" height="149" viewBox="0 0 94 149" fill="none" xmlns="http://www.w3.org/2000/svg">
<path d="M93.4549 124.843C93.4549 131.016 88.456 136.738 80.0689 140.947C71.7112 145.141 60.1302 147.749 47.3108 147.749C34.4914 147.749 22.9103 145.141 14.5526 140.947C6.16553 136.738 1.16663 131.016 1.16663 124.843C1.16663 118.67 6.16553 112.948 14.5526 108.739C22.9103 104.545 34.4914 101.937 47.3108 101.937C60.1302 101.937 71.7112 104.545 80.0689 108.739C88.456 112.948 93.4549 118.67 93.4549 124.843Z" fill="white" stroke="#D9D9D9"/>
<mask id="path-2-inside-1_90_193" fill="white">
<path d="M0.666626 22.4404H93.9549V122.893H0.666626V22.4404Z"/>
</mask>
<path d="M0.666626 22.4404H93.9549V122.893H0.666626V22.4404Z" fill="white"/>
<path d="M92.9549 22.4404V122.893H94.9549V22.4404H92.9549ZM1.66663 122.893V22.4404H-0.333374V122.893H1.66663Z" fill="#D9D9D9" mask="url(#path-2-inside-1_90_193)"/>
<ellipse cx="47.3108" cy="23.4162" rx="46.6441" ry="23.4065" fill="#272B31"/>
<path d="M20.0391 90.2315C19.5911 91.6035 18.6811 92.3735 17.3931 92.3735C15.5871 92.3735 14.2431 91.0715 14.2431 88.5375C14.2431 86.0035 15.5871 84.7015 17.3931 84.7015C18.6811 84.7015 19.5911 85.4715 20.0391 86.8435L21.2291 86.4935C20.7951 84.7715 19.4371 83.5255 17.3931 83.5255C15.1111 83.5255 12.9691 85.1915 12.9691 88.5375C12.9691 91.8835 15.1111 93.5495 17.3931 93.5495C19.4371 93.5495 20.7951 92.3035 21.2291 90.5815L20.0391 90.2315ZM22.4844 89.9095C22.4844 91.8275 23.7584 93.5495 25.8724 93.5495C27.9864 93.5495 29.2604 91.8275 29.2604 89.9095C29.2604 87.9915 27.9864 86.2695 25.8724 86.2695C23.7584 86.2695 22.4844 87.9915 22.4844 89.9095ZM23.6884 89.9095C23.6884 88.6075 24.4304 87.3335 25.8724 87.3335C27.3144 87.3335 28.0564 88.6075 28.0564 89.9095C28.0564 91.2115 27.3144 92.4855 25.8724 92.4855C24.4304 92.4855 23.6884 91.2115 23.6884 89.9095ZM40.6991 88.4675C40.6991 87.1095 39.9991 86.2695 38.7111 86.2695C37.7171 86.2695 36.9051 86.8155 36.4151 87.7395C36.1911 86.8155 35.5051 86.2695 34.5251 86.2695C33.5451 86.2695 32.7751 86.8015 32.3271 87.6835V86.3815H31.1511V93.4375H32.3271V90.5395C32.3271 88.4815 33.1811 87.3335 34.2031 87.3335C34.9451 87.3335 35.3371 87.8095 35.3371 88.7195V93.4375H36.5131V90.5395C36.5131 88.4815 37.3671 87.3335 38.3891 87.3335C39.1311 87.3335 39.5231 87.8095 39.5231 88.7195V93.4375H40.6991V88.4675ZM52.7714 88.4675C52.7714 87.1095 52.0714 86.2695 50.7834 86.2695C49.7894 86.2695 48.9774 86.8155 48.4874 87.7395C48.2634 86.8155 47.5774 86.2695 46.5974 86.2695C45.6174 86.2695 44.8474 86.8015 44.3994 87.6835V86.3815H43.2234V93.4375H44.3994V90.5395C44.3994 88.4815 45.2534 87.3335 46.2754 87.3335C47.0174 87.3335 47.4094 87.8095 47.4094 88.7195V93.4375H48.5854V90.5395C48.5854 88.4815 49.4394 87.3335 50.4614 87.3335C51.2034 87.3335 51.5954 87.8095 51.5954 88.7195V93.4375H52.7714V88.4675ZM60.9973 89.6155C60.9973 87.8655 59.8913 86.2695 57.8053 86.2695C55.6633 86.2695 54.6133 88.0195 54.6133 89.9095C54.6133 91.7995 55.6633 93.5495 57.8053 93.5495C59.2613 93.5495 60.1433 92.9615 60.8013 91.5895L59.7653 91.1415C59.3733 92.0095 58.8413 92.4855 57.8053 92.4855C56.5313 92.4855 55.8873 91.4635 55.8173 90.1615H60.9973V89.6155ZM57.8053 87.3335C58.9393 87.3335 59.5553 88.0895 59.7653 89.0975H55.8873C56.0973 88.0755 56.7133 87.3335 57.8053 87.3335ZM68.5926 88.4675C68.5926 87.0675 67.8086 86.2695 66.5206 86.2695C65.5406 86.2695 64.7006 86.7735 64.1826 87.6835V86.3815H63.0066V93.4375H64.1826V90.4835C64.1826 88.5235 65.1486 87.3335 66.1986 87.3335C66.9826 87.3335 67.4166 87.8095 67.4166 88.7755V93.4375H68.5926V88.4675ZM70.1077 87.4455H71.3257V91.2255C71.3257 92.8215 72.1797 93.5495 73.3697 93.5495C73.7757 93.5495 74.1817 93.4795 74.5177 93.2835L74.2377 92.2615C73.9857 92.4295 73.7477 92.4855 73.4397 92.4855C72.8517 92.4855 72.5017 92.0795 72.5017 91.3235V87.4455H74.3497V86.3815H72.5017V83.5255L71.3257 84.2675V86.3815H70.1077V87.4455ZM78.3117 86.2695C77.0377 86.2695 76.2397 87.1235 76.2397 88.2155C76.2397 90.5115 79.4877 90.0635 79.4877 91.3795C79.4877 92.1215 79.0677 92.4855 78.3537 92.4855C77.5697 92.4855 77.0237 91.8555 76.7157 91.0995L75.7217 91.6455C76.0857 92.5975 76.9117 93.5495 78.3537 93.5495C79.7817 93.5495 80.6917 92.7235 80.6917 91.3095C80.6917 89.2375 77.4157 89.5035 77.4157 88.2295C77.4157 87.6555 77.7937 87.3335 78.2697 87.3335C78.7597 87.3335 79.0957 87.5295 79.5577 88.0335L80.3557 87.3475C79.8657 86.6475 79.1797 86.2695 78.3117 86.2695Z" fill="black"/>
</svg>
